# xmcd CD database file
#
# Track frame offsets:
#	150
#	15098
#	28158
#	43627
#	55005
#	69969
#	82253
#	95820
#	108631
#	121740
#
# Disc length: 1798 seconds
#
# Revision: 0
# Processed by: cddbd v1.5.1PL2 Copyright (c) Steve Scherf et al.
# Submitted via: CDex 1.51
#
DISCID=7b07040a
DTITLE=Duke Ellington - I Got It Bad: Cocktail Hour
DYEAR=2001
DGENRE=Jazz
TTITLE0=I Got It Bad
TTITLE1=Take The A Train 
TTITLE2=What Am I Here For?
TTITLE3=Raincheck
TTITLE4=In A Mellow Tone
TTITLE5=Ko-Ko
TTITLE6=Harlem Air Shaft
TTITLE7=Main Stem
TTITLE8=Chelsea Bridge
TTITLE9=Moon Mist
EXTD=YEAR: 2001
EXTT0=
EXTT1=
EXTT2=
EXTT3=
EXTT4=
EXTT5=
EXTT6=
EXTT7=
EXTT8=
EXTT9=
PLAYORDER=
